name C:\Users\antoi\Documents\MyRepositories\upper-imu-dc\Results\main_tracking\Case_76\FLX01_linearAccelerations_groundFrame.mot
datacolumns 4
datarows 129
range 3.51000000 4.79000000
endheader 
time	radius_imu_x	radius_imu_y	radius_imu_z	
          3.51000000	         -0.00887251	          9.76473155	          0.21697701	
          3.52000000	         -0.03467635	          9.76520564	          0.23143949	
          3.53000000	         -0.05733210	          9.76627953	          0.23975336	
          3.54000000	         -0.07642618	          9.76799322	          0.24180864	
          3.55000000	         -0.09162192	          9.77033836	          0.23785577	
          3.56000000	         -0.10273121	          9.77326622	          0.22850813	
          3.57000000	         -0.10958031	          9.77667748	          0.21468522	
          3.58000000	         -0.11192894	          9.78041138	          0.19752687	
          3.59000000	         -0.10951876	          9.78424856	          0.17829335	
          3.60000000	         -0.10206912	          9.78791800	          0.15824495	
          3.61000000	         -0.08926535	          9.79111625	          0.13852033	
          3.62000000	         -0.07084105	          9.79353503	          0.12004452	
          3.63000000	         -0.04660275	          9.79489591	          0.10349637	
          3.64000000	         -0.01630832	          9.79495396	          0.08929841	
          3.65000000	          0.02018858	          9.79350038	          0.07762611	
          3.66000000	          0.06293373	          9.79037451	          0.06843059	
          3.67000000	          0.11184686	          9.78551460	          0.06148477	
          3.68000000	          0.16687902	          9.77889588	          0.05633544	
          3.69000000	          0.22798392	          9.77051007	          0.05242420	
          3.70000000	          0.29458406	          9.76041551	          0.04933507	
          3.71000000	          0.36578360	          9.74871690	          0.04663393	
          3.72000000	          0.44051273	          9.73553576	          0.04411649	
          3.73000000	          0.51824838	          9.72091750	          0.04183389	
          3.74000000	          0.59946858	          9.70478851	          0.03969385	
          3.75000000	          0.68201366	          9.68762406	          0.03688153	
          3.76000000	          0.76340273	          9.66997111	          0.03251051	
          3.77000000	          0.84412870	          9.65171346	          0.02637310	
          3.78000000	          0.92359719	          9.63284069	          0.01844075	
          3.79000000	          1.00045784	          9.61341315	          0.00850314	
          3.80000000	          1.07363829	          9.59346986	         -0.00380209	
          3.81000000	          1.14242973	          9.57302885	         -0.01882783	
          3.82000000	          1.20628412	          9.55209502	         -0.03683936	
          3.83000000	          1.26477467	          9.53073451	         -0.05797063	
          3.84000000	          1.31761242	          9.50905885	         -0.08220198	
          3.85000000	          1.36463991	          9.48718381	         -0.10937018	
          3.86000000	          1.40585458	          9.46520917	         -0.13911267	
          3.87000000	          1.44140777	          9.44320001	         -0.17087599	
          3.88000000	          1.47157081	          9.42116087	         -0.20393937	
          3.89000000	          1.49668885	          9.39902492	         -0.23744037	
          3.90000000	          1.51714991	          9.37666397	         -0.27041267	
          3.91000000	          1.53337665	          9.35389348	         -0.30185120	
          3.92000000	          1.54582305	          9.33048773	         -0.33077567	
          3.93000000	          1.55494591	          9.30619182	         -0.35626546	
          3.94000000	          1.56110977	          9.28072304	         -0.37746408	
          3.95000000	          1.56449914	          9.25378517	         -0.39358722	
          3.96000000	          1.56518562	          9.22508887	         -0.40397415	
          3.97000000	          1.56303499	          9.19442346	         -0.40814786	
          3.98000000	          1.55768756	          9.16172054	         -0.40583581	
          3.99000000	          1.54865194	          9.12709391	         -0.39704920	
          4.00000000	          1.53523181	          9.09086851	         -0.38205137	
          4.01000000	          1.51659333	          9.05357014	         -0.36135599	
          4.02000000	          1.49182636	          9.01590404	         -0.33567787	
          4.03000000	          1.46000239	          8.97871746	         -0.30585189	
          4.04000000	          1.42024648	          8.94293944	         -0.27273216	
          4.05000000	          1.37179485	          8.90951740	         -0.23709202	
          4.06000000	          1.31404713	          8.87935916	         -0.19955381	
          4.07000000	          1.24662514	          8.85328479	         -0.16057426	
          4.08000000	          1.16942960	          8.83199010	         -0.12048300	
          4.09000000	          1.08270231	          8.81601243	         -0.07954545	
          4.10000000	          0.98709271	          8.80568964	         -0.03801015	
          4.11000000	          0.88370762	          8.80111046	          0.00389215	
          4.12000000	          0.77412257	          8.80207120	          0.04598331	
          4.13000000	          0.66034015	          8.80806669	          0.08816966	
          4.14000000	          0.54469596	          8.81832755	          0.13044105	
          4.15000000	          0.42972335	          8.83188643	          0.17283443	
          4.16000000	          0.31799558	          8.84764525	          0.21537936	
          4.17000000	          0.21197028	          8.86442615	          0.25804299	
          4.18000000	          0.11386589	          8.88100636	          0.30068020	
          4.19000000	          0.02554636	          8.89617592	          0.34296186	
          4.20000000	         -0.05155267	          8.90879907	          0.38430963	
          4.21000000	         -0.11651266	          8.91789575	          0.42384213	
          4.22000000	         -0.16902434	          8.92271619	          0.46037810	
          4.23000000	         -0.20945415	          8.92279902	          0.49252422	
          4.24000000	         -0.23884793	          8.91801366	          0.51884577	
          4.25000000	         -0.25885253	          8.90859174	          0.53809713	
          4.26000000	         -0.27156958	          8.89514158	          0.54946764	
          4.27000000	         -0.27935663	          8.87861512	          0.55276994	
          4.28000000	         -0.28457229	          8.86020484	          0.54849316	
          4.29000000	         -0.28930129	          8.84118864	          0.53770854	
          4.30000000	         -0.29513069	          8.82276248	          0.52189212	
          4.31000000	         -0.30304972	          8.80589398	          0.50275104	
          4.32000000	         -0.31346806	          8.79120844	          0.48208482	
          4.33000000	         -0.32630081	          8.77890923	          0.46166132	
          4.34000000	         -0.34108318	          8.76874813	          0.44308449	
          4.35000000	         -0.35711179	          8.76006979	          0.42765821	
          4.36000000	         -0.37358989	          8.75193009	          0.41625302	
          4.37000000	         -0.38974174	          8.74325577	          0.40919161	
          4.38000000	         -0.40489835	          8.73301301	          0.40619856	
          4.39000000	         -0.41857690	          8.72036487	          0.40645685	
          4.40000000	         -0.43053722	          8.70478401	          0.40877459	
          4.41000000	         -0.44077363	          8.68607364	          0.41181929	
          4.42000000	         -0.44943109	          8.66426861	          0.41435127	
          4.43000000	         -0.45669168	          8.63945376	          0.41540633	
          4.44000000	         -0.46270099	          8.61160056	          0.41440394	
          4.45000000	         -0.46758300	          8.58052048	          0.41116544	
          4.46000000	         -0.47154510	          8.54596368	          0.40585099	
          4.47000000	         -0.47501178	          8.50780538	          0.39884939	
          4.48000000	         -0.47873313	          8.46624219	          0.39073139	
          4.49000000	         -0.48375296	          8.42188072	          0.38218581	
          4.50000000	         -0.49127960	          8.37570278	          0.37398421	
          4.51000000	         -0.50251127	          8.32893930	          0.36692934	
          4.52000000	         -0.51850891	          8.28294259	          0.36178891	
          4.53000000	         -0.54020007	          8.23917038	          0.35926527	
          4.54000000	         -0.56836536	          8.19917433	          0.35985980	
          4.55000000	         -0.60351493	          8.16451449	          0.36356225	
          4.56000000	         -0.64600450	          8.13686406	          0.36997527	
          4.57000000	         -0.69589943	          8.11788166	          0.37818956	
          4.58000000	         -0.75296037	          8.10914613	          0.38689107	
          4.59000000	         -0.81667069	          8.11211844	          0.39454801	
          4.60000000	         -0.88627487	          8.12811531	          0.39963567	
          4.61000000	         -0.96080325	          8.15827254	          0.40085536	
          4.62000000	         -1.03907393	          8.20346957	          0.39726922	
          4.63000000	         -1.11969177	          8.26420734	          0.38833518	
          4.64000000	         -1.20105314	          8.34044644	          0.37382966	
          4.65000000	         -1.28138715	          8.43145505	          0.35372735	
          4.66000000	         -1.35896147	          8.53588264	          0.32833039	
          4.67000000	         -1.43226403	          8.65189398	          0.29842275	
          4.68000000	         -1.49992713	          8.77713218	          0.26489286	
          4.69000000	         -1.56095357	          8.90907948	          0.22899782	
          4.70000000	         -1.61468872	          9.04517778	          0.19216300	
          4.71000000	         -1.66077379	          9.18291900	          0.15582021	
          4.72000000	         -1.69912038	          9.31995060	          0.12135785	
          4.73000000	         -1.72987495	          9.45415417	          0.09010946	
          4.74000000	         -1.75336006	          9.58370375	          0.06329005	
          4.75000000	         -1.77000003	          9.70713745	          0.04183370	
          4.76000000	         -1.78024521	          9.82345705	          0.02617871	
          4.77000000	         -1.78451344	          9.93221846	          0.01611398	
          4.78000000	         -1.78315531	         10.03354474	          0.01077965	
          4.79000000	         -1.77643212	         10.12800632	          0.00880417	
